<?xml version="1.0" encoding="UTF-8"?>
<svg xmlns="http://www.w3.org/2000/svg" xmlns:xlink="http://www.w3.org/1999/xlink" width="15pt" height="15pt" viewBox="0 0 15 15" version="1.1">
<g id="surface1">
<path style=" stroke:none;fill-rule:nonzero;fill:rgb(0%,0%,0%);fill-opacity:1;" d="M 11.253906 4.046875 C 10.332031 3.125 9.0625 2.550781 7.652344 2.550781 C 4.832031 2.550781 2.554688 4.832031 2.554688 7.652344 C 2.554688 10.464844 4.832031 12.75 7.652344 12.75 C 10.023438 12.75 12.011719 11.121094 12.582031 8.921875 L 11.253906 8.921875 C 10.726562 10.410156 9.320312 11.472656 7.652344 11.472656 C 5.539062 11.472656 3.824219 9.765625 3.824219 7.652344 C 3.824219 5.539062 5.539062 3.824219 7.652344 3.824219 C 8.707031 3.824219 9.652344 4.265625 10.34375 4.957031 L 8.289062 7.011719 L 12.75 7.011719 L 12.75 2.550781 Z M 11.253906 4.046875 "/>
</g>
</svg>
